# xmcd
#
# Track frame offsets:
#	150
#	17760
#	39130
#	62365
#
# Disc length: 1049 seconds
#
# Revision: 2
# Processed by: cddbd v1.5.2PL0 Copyright (c) Steve Scherf et al.
# Submitted via: audiograbber 1.83.01
#
DISCID=21041704
DTITLE=Double You - Revista Uau (Só Gatos)
DYEAR=1900
DGENRE=Pop
TTITLE0=Double You - She's Beautiful - Promo Brasil
TTITLE1=Double You - What Did You Do - Promo Brasil
TTITLE2=Double You - Looking At My Girl - Promo Brasil
TTITLE3=Double You - I Gave You All - Promo Brasil
EXTD=
EXTT0=
EXTT1=
EXTT2=
EXTT3=
PLAYORDER=
